<svg width="89" height="38" viewBox="0 0 89 38" fill="none" xmlns="http://www.w3.org/2000/svg">
<g filter="url(#filter0_d_19_91)">
<path d="M11.2588 7.32617V8.39941H5.87207V7.32617H11.2588ZM6.07715 3.04688V13H4.75781V3.04688H6.07715ZM12.4072 3.04688V13H11.0947V3.04688H12.4072ZM18.5596 3.92871L15.2646 13H13.918L17.7119 3.04688H18.5801L18.5596 3.92871ZM21.3213 13L18.0195 3.92871L17.999 3.04688H18.8672L22.6748 13H21.3213ZM21.1504 9.31543V10.3955H15.5586V9.31543H21.1504ZM27.6787 9.09668H25.0195V8.02344H27.6787C28.1937 8.02344 28.6107 7.94141 28.9297 7.77734C29.2487 7.61328 29.4811 7.38542 29.627 7.09375C29.7773 6.80208 29.8525 6.4694 29.8525 6.0957C29.8525 5.75391 29.7773 5.43262 29.627 5.13184C29.4811 4.83105 29.2487 4.58952 28.9297 4.40723C28.6107 4.22038 28.1937 4.12695 27.6787 4.12695H25.3271V13H24.0078V3.04688H27.6787C28.4307 3.04688 29.0664 3.17676 29.5859 3.43652C30.1055 3.69629 30.4997 4.05632 30.7686 4.5166C31.0374 4.97233 31.1719 5.49414 31.1719 6.08203C31.1719 6.72005 31.0374 7.26465 30.7686 7.71582C30.4997 8.16699 30.1055 8.51107 29.5859 8.74805C29.0664 8.98047 28.4307 9.09668 27.6787 9.09668ZM36.5107 9.09668H33.8516V8.02344H36.5107C37.0257 8.02344 37.4427 7.94141 37.7617 7.77734C38.0807 7.61328 38.3132 7.38542 38.459 7.09375C38.6094 6.80208 38.6846 6.4694 38.6846 6.0957C38.6846 5.75391 38.6094 5.43262 38.459 5.13184C38.3132 4.83105 38.0807 4.58952 37.7617 4.40723C37.4427 4.22038 37.0257 4.12695 36.5107 4.12695H34.1592V13H32.8398V3.04688H36.5107C37.2627 3.04688 37.8984 3.17676 38.418 3.43652C38.9375 3.69629 39.3317 4.05632 39.6006 4.5166C39.8695 4.97233 40.0039 5.49414 40.0039 6.08203C40.0039 6.72005 39.8695 7.26465 39.6006 7.71582C39.3317 8.16699 38.9375 8.51107 38.418 8.74805C37.8984 8.98047 37.2627 9.09668 36.5107 9.09668ZM42.1299 3.04688L44.7139 8.04395L47.3047 3.04688H48.8018L45.3701 9.28125V13H44.0508V9.28125L40.6191 3.04688H42.1299ZM10.2812 19.0469H11.5596L14.8203 27.1611L18.0742 19.0469H19.3594L15.3125 29H14.3145L10.2812 19.0469ZM9.86426 19.0469H10.9922L11.1768 25.1172V29H9.86426V19.0469ZM18.6416 19.0469H19.7695V29H18.457V25.1172L18.6416 19.0469ZM29.75 23.709V24.3379C29.75 25.0853 29.6566 25.7552 29.4697 26.3477C29.2829 26.9401 29.014 27.4437 28.6631 27.8584C28.3122 28.2731 27.8906 28.5898 27.3984 28.8086C26.9108 29.0273 26.3639 29.1367 25.7578 29.1367C25.1699 29.1367 24.6299 29.0273 24.1377 28.8086C23.6501 28.5898 23.2262 28.2731 22.8662 27.8584C22.5107 27.4437 22.235 26.9401 22.0391 26.3477C21.8431 25.7552 21.7451 25.0853 21.7451 24.3379V23.709C21.7451 22.9616 21.8408 22.2939 22.0322 21.7061C22.2282 21.1136 22.5039 20.61 22.8594 20.1953C23.2148 19.776 23.6364 19.457 24.124 19.2383C24.6162 19.0195 25.1562 18.9102 25.7441 18.9102C26.3503 18.9102 26.8971 19.0195 27.3848 19.2383C27.877 19.457 28.2985 19.776 28.6494 20.1953C29.0049 20.61 29.276 21.1136 29.4629 21.7061C29.6543 22.2939 29.75 22.9616 29.75 23.709ZM28.4443 24.3379V23.6953C28.4443 23.1029 28.3828 22.5788 28.2598 22.123C28.1413 21.6673 27.9658 21.2845 27.7334 20.9746C27.501 20.6647 27.2161 20.43 26.8789 20.2705C26.5462 20.111 26.168 20.0312 25.7441 20.0312C25.334 20.0312 24.9626 20.111 24.6299 20.2705C24.3018 20.43 24.0192 20.6647 23.7822 20.9746C23.5498 21.2845 23.3698 21.6673 23.2422 22.123C23.1146 22.5788 23.0508 23.1029 23.0508 23.6953V24.3379C23.0508 24.9349 23.1146 25.4635 23.2422 25.9238C23.3698 26.3796 23.5521 26.7646 23.7891 27.0791C24.0306 27.389 24.3154 27.6237 24.6436 27.7832C24.9762 27.9427 25.3477 28.0225 25.7578 28.0225C26.1862 28.0225 26.5667 27.9427 26.8994 27.7832C27.2321 27.6237 27.5124 27.389 27.7402 27.0791C27.9727 26.7646 28.1481 26.3796 28.2666 25.9238C28.3851 25.4635 28.4443 24.9349 28.4443 24.3379ZM34.7881 27.4893L37.7207 19.0469H39.1494L35.4648 29H34.4463L34.7881 27.4893ZM32.0469 19.0469L34.9521 27.4893L35.3145 29H34.2959L30.6182 19.0469H32.0469ZM46.8125 27.9268V29H41.542V27.9268H46.8125ZM41.8086 19.0469V29H40.4893V19.0469H41.8086ZM46.1152 23.3262V24.3994H41.542V23.3262H46.1152ZM46.7441 19.0469V20.127H41.542V19.0469H46.7441Z" fill="#FCFEFF"/>
</g>
<path d="M54 1V29" stroke="#FFCC00" stroke-width="2"/>
<path d="M83.0769 1C81.8893 1 80.9231 1.96621 80.9231 3.15384C80.9231 4.34147 81.8893 5.30768 83.0769 5.30768C84.2645 5.30768 85.2308 4.34147 85.2308 3.15384C85.2308 1.96621 84.2645 1 83.0769 1ZM63.0769 1.61538C62.737 1.61538 62.4615 1.89089 62.4615 2.23077C62.4615 2.57064 62.737 2.84615 63.0769 2.84615H65.5384C65.8783 2.84615 66.1538 2.57064 66.1538 2.23077C66.1538 1.89089 65.8783 1.61538 65.5384 1.61538H63.0769ZM67.3846 1.61538C67.0447 1.61538 66.7692 1.8909 66.7692 2.23077C66.7692 2.57063 67.0447 2.84615 67.3846 2.84615C67.7245 2.84615 68 2.57063 68 2.23077C68 1.8909 67.7245 1.61538 67.3846 1.61538ZM73.2308 2.23077C72.3824 2.23077 71.6923 2.92092 71.6923 3.76922C71.6923 4.61752 72.3824 5.30768 73.2308 5.30768C74.0791 5.30768 74.7692 4.61752 74.7692 3.76922C74.7692 2.92092 74.0791 2.23077 73.2308 2.23077ZM83.0769 2.23077C83.5859 2.23077 84 2.64486 84 3.15384C84 3.66282 83.5859 4.07692 83.0769 4.07692C82.5679 4.07692 82.1538 3.66282 82.1538 3.15384C82.1538 2.64486 82.5679 2.23077 83.0769 2.23077ZM61.8462 3.46154C61.5063 3.46154 61.2308 3.73702 61.2308 4.07692C61.2308 4.41682 61.5063 4.69232 61.8462 4.69232H65.5384C65.8783 4.69232 66.1538 4.41682 66.1538 4.07692C66.1538 3.73702 65.8783 3.46154 65.5384 3.46154H61.8462ZM67.3846 3.46154C67.0447 3.46154 66.7692 3.73707 66.7692 4.07692C66.7692 4.41677 67.0447 4.69232 67.3846 4.69232C67.7245 4.69232 68 4.41677 68 4.07692C68 3.73707 67.7245 3.46154 67.3846 3.46154ZM73.2308 3.46154C73.4004 3.46154 73.5384 3.59957 73.5384 3.76922C73.5384 3.93887 73.4004 4.07692 73.2308 4.07692C73.0611 4.07692 72.9231 3.93887 72.9231 3.76922C72.9231 3.59957 73.0611 3.46154 73.2308 3.46154ZM77.2308 3.46154C76.8909 3.46154 76.6154 3.73707 76.6154 4.07692C76.6154 4.41677 76.8909 4.69232 77.2308 4.69232C77.5706 4.69232 77.8461 4.41677 77.8461 4.07692C77.8461 3.73707 77.5706 3.46154 77.2308 3.46154ZM87.0645 4.69252C87.004 4.69377 86.9426 4.70402 86.8822 4.72417C86.5598 4.83162 86.3855 5.18013 86.493 5.50253C86.6005 5.82488 86.9489 5.99917 87.2713 5.89172C87.5937 5.78417 87.768 5.43572 87.6606 5.11332C87.5732 4.85137 87.3268 4.68722 87.0645 4.69252ZM60.6154 5.30768C60.2755 5.30768 60 5.58322 60 5.92307C60 6.26297 60.2755 6.53847 60.6154 6.53847H65.5384C65.8783 6.53847 66.1538 6.26297 66.1538 5.92307C66.1538 5.58322 65.8783 5.30768 65.5384 5.30768H60.6154ZM67.3846 5.30768C67.0447 5.30768 66.7692 5.58322 66.7692 5.92307C66.7692 6.26292 67.0447 6.53847 67.3846 6.53847C67.7245 6.53847 68 6.26292 68 5.92307C68 5.58322 67.7245 5.30768 67.3846 5.30768ZM69.2071 7.15382C69.1024 7.15402 68.9978 7.18087 68.9038 7.23437L62.7727 10.7215C62.5299 10.8596 62.4106 11.1438 62.482 11.4138C62.5534 11.6838 62.7975 11.8719 63.0768 11.8719H64.2035V14.7095H62.4615C62.1217 14.7095 61.8462 14.9851 61.8462 15.3249V18.2308H60.6154C60.2755 18.2308 60 18.5063 60 18.8462V24.3846C60 24.7244 60.2755 25 60.6154 25H63.7542C63.5842 25.834 63.7615 26.7335 64.3094 27.4615H60.6154C60.2755 27.4615 60 27.7371 60 28.0769C60 28.4167 60.2755 28.6923 60.6154 28.6923H86.4615C86.8013 28.6923 87.0769 28.4167 87.0769 28.0769C87.0769 27.7371 86.8013 27.4615 86.4615 27.4615H85.2291C85.7773 26.7329 85.954 25.8335 85.7842 25H87.6923C88.0321 25 88.3077 24.7244 88.3077 24.3846V20.5934C88.3077 20.4771 88.2747 20.3632 88.2126 20.2649L84.3079 14.0791C83.9422 13.4997 83.3148 13.1538 82.6297 13.1538H79.0769C78.7371 13.1538 78.4615 13.4293 78.4615 13.7692V18.2308H76.6154V15.3248C76.6154 14.9849 76.3398 14.7094 76 14.7094H74.2565V11.8718H75.3858C75.7257 11.8718 76.0012 11.5962 76.0012 11.2564C76.0012 11.0158 75.8632 10.8074 75.6619 10.7062L69.5106 7.23342C69.4164 7.18022 69.3117 7.15367 69.2071 7.15382ZM61.8338 8.38438C61.7732 8.38558 61.7119 8.39583 61.6514 8.41598C61.329 8.52348 61.1547 8.87197 61.2621 9.19437C61.3696 9.51677 61.718 9.69102 62.0405 9.58352C62.3629 9.47607 62.5372 9.12757 62.4297 8.80517C62.3424 8.54327 62.0961 8.37908 61.8338 8.38438ZM69.2091 8.47657L73.0429 10.641H65.4036L69.2091 8.47657ZM81.5264 8.99977C81.4659 9.00097 81.4045 9.01122 81.3441 9.03137C81.0216 9.13887 80.8473 9.48732 80.9548 9.80972C81.0623 10.1321 81.4108 10.3064 81.7332 10.1989C82.0556 10.0915 82.2298 9.74297 82.1223 9.42057C82.035 9.15867 81.7887 8.99447 81.5264 8.99977ZM85.8461 9.00002C84.8282 9.00002 84 9.82817 84 10.8462C84 11.8641 84.8282 12.6923 85.8461 12.6923C86.8641 12.6923 87.6923 11.8641 87.6923 10.8462C87.6923 9.82817 86.8641 9.00002 85.8461 9.00002ZM85.8461 10.2308C86.1855 10.2308 86.4615 10.5068 86.4615 10.8462C86.4615 11.1855 86.1855 11.4615 85.8461 11.4615C85.5068 11.4615 85.2308 11.1855 85.2308 10.8462C85.2308 10.5068 85.5068 10.2308 85.8461 10.2308ZM65.4342 11.8719H73.0257V18.2308H71.378V15.6712C71.378 14.4999 70.425 13.547 69.2537 13.547C68.0824 13.547 67.1296 14.4998 67.1296 15.6712V18.2308H65.4342V11.8719ZM79.6923 14.3846H82.6297C82.8899 14.3846 83.1283 14.516 83.2672 14.7361L85.4802 18.2419C81.2315 18.2278 82.344 18.2308 82.1537 18.2308C81.8148 18.2308 81.5395 18.5049 81.5383 18.8441C81.5372 19.1839 81.8119 19.4604 82.1518 19.4615L86.2586 19.4752L87.0769 20.7714V23.7692H85.2291C83.9945 22.1284 81.5436 22.1287 80.3094 23.7692H79.6923V14.3846ZM69.2537 14.7778C69.7463 14.7778 70.1472 15.1785 70.1472 15.6712V18.2308H68.3603V15.6712C68.3603 15.1785 68.7611 14.7778 69.2537 14.7778ZM63.0769 15.9401H64.2035V18.2308H63.0769V15.9401ZM74.2565 15.9401H75.3846V18.2308H74.2565V15.9401ZM61.2308 19.4615H78.4615V23.7692H69.2291C67.9945 22.1284 65.5437 22.1287 64.3094 23.7692H61.2308V21.9231H74.7692C75.109 21.9231 75.3846 21.6475 75.3846 21.3077C75.3846 20.9679 75.109 20.6923 74.7692 20.6923H61.2308V19.4615ZM82.1538 20.0769C81.814 20.0769 81.5384 20.3525 81.5384 20.6923C81.5384 21.0321 81.814 21.3077 82.1538 21.3077H82.7692C83.109 21.3077 83.3846 21.0321 83.3846 20.6923C83.3846 20.3525 83.109 20.0769 82.7692 20.0769H82.1538ZM76.6154 20.6924C76.2789 20.6971 76.0085 20.9712 76.0085 21.3077C76.0085 21.6442 76.2789 21.9183 76.6154 21.923C76.9519 21.9183 77.2222 21.6442 77.2222 21.3077C77.2222 20.9712 76.9519 20.6971 76.6154 20.6924ZM66.7692 23.7692C67.7872 23.7692 68.6154 24.5974 68.6154 25.6154C68.6154 26.6334 67.7872 27.4615 66.7692 27.4615C65.7512 27.4615 64.9231 26.6334 64.9231 25.6154C64.9231 24.5974 65.7512 23.7692 66.7692 23.7692ZM82.7692 23.7692C83.7872 23.7692 84.6154 24.5974 84.6154 25.6154C84.6154 26.6334 83.7872 27.4615 82.7692 27.4615C81.7512 27.4615 80.9231 26.6334 80.9231 25.6154C80.9231 24.5974 81.7512 23.7692 82.7692 23.7692ZM66.7692 24.3846C66.0906 24.3846 65.5384 24.9367 65.5384 25.6154C65.5384 26.294 66.0906 26.8462 66.7692 26.8462C67.4479 26.8462 68 26.294 68 25.6154C68 24.9367 67.4479 24.3846 66.7692 24.3846ZM82.7692 24.3846C82.0906 24.3846 81.5384 24.9367 81.5384 25.6154C81.5384 26.294 82.0906 26.8462 82.7692 26.8462C83.4479 26.8462 84 26.294 84 25.6154C84 24.9367 83.4479 24.3846 82.7692 24.3846ZM69.7842 25H79.7542C79.5845 25.8333 79.761 26.7327 80.3094 27.4615H69.2291C69.7771 26.7332 69.9541 25.8337 69.7842 25Z" fill="#FFCC00"/>
<defs>
<filter id="filter0_d_19_91" x="0.757812" y="3.04688" width="52.0439" height="34.0898" filterUnits="userSpaceOnUse" color-interpolation-filters="sRGB">
<feFlood flood-opacity="0" result="BackgroundImageFix"/>
<feColorMatrix in="SourceAlpha" type="matrix" values="0 0 0 0 0 0 0 0 0 0 0 0 0 0 0 0 0 0 127 0" result="hardAlpha"/>
<feOffset dy="4"/>
<feGaussianBlur stdDeviation="2"/>
<feComposite in2="hardAlpha" operator="out"/>
<feColorMatrix type="matrix" values="0 0 0 0 0 0 0 0 0 0 0 0 0 0 0 0 0 0 0.25 0"/>
<feBlend mode="normal" in2="BackgroundImageFix" result="effect1_dropShadow_19_91"/>
<feBlend mode="normal" in="SourceGraphic" in2="effect1_dropShadow_19_91" result="shape"/>
</filter>
</defs>
</svg>
